<svg width="100" height="100" viewBox="0 0 100 100" fill="none" xmlns="http://www.w3.org/2000/svg">
  <circle cx="50" cy="50" r="50" fill="#25D366"/>
  <path d="M50 20C33.4315 20 20 33.4315 20 50C20 56.413 22.0335 62.351 25.503 67.202L22 80L35.215 76.536C39.734 78.751 44.75 80 50 80C66.5685 80 80 66.5685 80 50C80 33.4315 66.5685 20 50 20Z" fill="white"/>
  <path d="M62 55.5C61.2 55.1 57.2 53.1 56.5 52.8C55.8 52.5 55.3 52.4 54.8 53.2C54.3 54 52.8 55.8 52.4 56.3C52 56.8 51.6 56.8 50.8 56.4C50 56 47.4 55.1 44.3 52.3C41.9 50.2 40.3 47.6 39.8 46.8C39.3 46 39.8 45.6 40.2 45.2C40.6 44.8 41.1 44.2 41.3 43.8C41.5 43.4 41.4 43 41.2 42.6C41 42.2 40 39.8 39.2 37.8C38.4 35.8 37.6 36.1 37.1 36.1H36.3C35.8 36.1 35 36.3 34.3 37.1C33.6 37.9 31.6 39.8 31.6 43.6C31.6 47.4 34.4 51.1 34.8 51.6C35.2 52.1 40 59.4 47.4 62.6C49.2 63.4 50.5 63.8 51.6 64.1C53.4 64.7 55 64.6 56.3 64.4C57.7 64.2 60.6 62.6 61.2 60.9C61.8 59.2 61.8 57.7 61.6 57.4C61.4 57.1 61 56.9 60.2 56.5H62V55.5Z" fill="#25D366"/>
</svg>
